<svg width="148" height="183" viewBox="0 0 148 183" fill="none" xmlns="http://www.w3.org/2000/svg">
<g id="Group-2">
<g id="Group-3">
<path id="Path" d="M96 0.5C96 9.33656 88.8366 16.5 80 16.5H27L77.1683 103.73C78.773 106.491 79.7169 109.414 80 112.5C80.2042 114.726 79.7476 117.114 78.6302 119.665L73.5 128.5L0 0.5H64" fill="white"/>
<path id="Path-2" d="M92 97L148 0.5H138.5C135.771 0.504125 133.271 1.17079 131 2.5C128.723 3.83267 126.676 5.82789 124.857 8.48564L92 65L77.9741 41.0084C76.3989 38.1353 74.4076 35.9659 72 34.5C69.7495 33.1298 67.0829 32.4631 64 32.5H54.5L92 97Z" fill="#00FCB2"/>
</g>
<path id="VYou" fill-rule="evenodd" clip-rule="evenodd" d="M54 167L50 161L44.9823 168.436L38.5398 156H31L45 183L54 167ZM68.0241 183V170.037L78 156H69.5422L64.5181 163.377L59.4578 156H51L60.9398 170.037V183H68.0241ZM88.3393 182.274C86.9702 182.758 85.4881 183 83.8929 183C82.3214 183 80.869 182.758 79.5357 182.274C78.2024 181.79 77.0536 181.1 76.0893 180.205C75.125 179.31 74.369 178.239 73.8214 176.993C73.2738 175.747 73 174.361 73 172.837C73 171.457 73.2738 170.169 73.8214 168.971C74.369 167.773 75.131 166.733 76.1071 165.849C77.0833 164.966 78.244 164.27 79.5893 163.762C80.9345 163.254 82.4048 163 84 163C85.5714 163 87.0298 163.248 88.375 163.744C89.7202 164.24 90.8869 164.93 91.875 165.813C92.8631 166.696 93.631 167.749 94.1786 168.971C94.7262 170.193 95 171.542 95 173.018C95 174.494 94.7202 175.843 94.1607 177.065C93.6012 178.287 92.8333 179.34 91.8571 180.223C90.881 181.106 89.7083 181.79 88.3393 182.274ZM84 177C83.453 177 82.9345 176.898 82.4444 176.694C81.9544 176.489 81.5328 176.206 81.1795 175.843C80.8262 175.479 80.5413 175.054 80.3248 174.566C80.1083 174.078 80 173.539 80 172.949C80 172.404 80.1083 171.894 80.3248 171.417C80.5413 170.94 80.8262 170.521 81.1795 170.157C81.5328 169.794 81.9544 169.511 82.4444 169.306C82.9345 169.102 83.453 169 84 169C84.547 169 85.0655 169.102 85.5556 169.306C86.0456 169.511 86.4672 169.794 86.8205 170.157C87.1738 170.521 87.4587 170.946 87.6752 171.434C87.8917 171.922 88 172.438 88 172.983C88 173.55 87.8917 174.078 87.6752 174.566C87.4587 175.054 87.1738 175.479 86.8205 175.843C86.4672 176.206 86.0456 176.489 85.5556 176.694C85.0655 176.898 84.547 177 84 177ZM115.491 181.143C113.818 182.381 111.321 183 108 183C104.679 183 102.182 182.381 100.509 181.143C98.8364 179.905 98 178.048 98 175.571V164H104.63V174.321C104.63 176.583 105.753 177.714 108 177.714C110.247 177.714 111.37 176.583 111.37 174.321V164H118V175.571C118 178.048 117.164 179.905 115.491 181.143Z" fill="white"/>
</g>
</svg>
